<?xml version="1.0" encoding="UTF-8" standalone="no"?>
<!DOCTYPE svg PUBLIC "-//W3C//DTD SVG 1.1//EN"
 "http://www.w3.org/Graphics/SVG/1.1/DTD/svg11.dtd">
<!-- Generated by graphviz version 11.0.0 (0)
 -->
<!-- Title: CreateX._guard(bytes32) control flow graph Pages: 1 -->
<svg width="2095pt" height="654pt"
 viewBox="0.00 0.00 2095.45 653.60" xmlns="http://www.w3.org/2000/svg" xmlns:xlink="http://www.w3.org/1999/xlink">
<g id="graph0" class="graph" transform="scale(1 1) rotate(0) translate(4 649.6)">
<title>CreateX._guard(bytes32) control flow graph</title>
<polygon fill="white" stroke="none" points="-4,4 -4,-649.6 2091.45,-649.6 2091.45,4 -4,4"/>
<!-- 1 -->
<g id="node1" class="node">
<title>1</title>
<g id="a_node1"><a xlink:href="vscode://file//home/limx/createx/src/CreateX.sol:887:9" xlink:title="(SenderBytes senderBytes, RedeployProtectionFlag redeployProtectionFlag) = _parseSalt({salt: salt})\l">
<polygon fill="none" stroke="black" points="817.71,-645.6 229.44,-645.6 229.44,-609.6 817.71,-609.6 817.71,-645.6"/>
<text text-anchor="start" x="237.44" y="-623.4" font-family="Times,serif" font-size="14.00">(SenderBytes senderBytes, RedeployProtectionFlag redeployProtectionFlag) = _parseSalt({salt: salt})</text>
</a>
</g>
</g>
<!-- 4 -->
<g id="node4" class="node">
<title>4</title>
<g id="a_node4"><a xlink:href="vscode://file//home/limx/createx/src/CreateX.sol:891:13" xlink:title="guardedSalt = keccak256(abi.encode(msg.sender, block.chainid, salt))\l">
<polygon fill="none" stroke="black" points="409.14,-502.8 0,-502.8 0,-466.8 409.14,-466.8 409.14,-502.8"/>
<text text-anchor="start" x="8" y="-480.6" font-family="Times,serif" font-size="14.00">guardedSalt = keccak256(abi.encode(msg.sender, block.chainid, salt))</text>
</a>
</g>
</g>
<!-- 1&#45;&gt;4 -->
<g id="edge1" class="edge">
<title>1&#45;&gt;4</title>
<path fill="none" stroke="black" d="M266.94,-609.12C232.96,-604.45 207.55,-598.67 201.21,-591.6 182.64,-570.91 187.19,-537.74 194.02,-514.05"/>
<polygon fill="black" stroke="black" points="197.29,-515.32 197,-504.73 190.62,-513.19 197.29,-515.32"/>
<text text-anchor="middle" x="509.75" y="-579" font-family="Times,serif" font-size="14.00">senderBytes == SenderBytes.MsgSender &amp;&amp; redeployProtectionFlag == RedeployProtectionFlag.True is true</text>
</g>
<!-- 6 -->
<g id="node5" class="node">
<title>6</title>
<polygon fill="none" stroke="black" points="870.57,-556.8 816.57,-556.8 816.57,-520.8 870.57,-520.8 870.57,-556.8"/>
</g>
<!-- 1&#45;&gt;6 -->
<g id="edge2" class="edge">
<title>1&#45;&gt;6</title>
<path fill="none" stroke="black" d="M776.49,-609.16C796.05,-604.58 811.93,-598.82 821.57,-591.6 829.21,-585.87 834.23,-576.97 837.5,-568.15"/>
<polygon fill="black" stroke="black" points="840.81,-569.3 840.36,-558.72 834.11,-567.27 840.81,-569.3"/>
<text text-anchor="middle" x="1144.08" y="-579" font-family="Times,serif" font-size="14.00">senderBytes == SenderBytes.MsgSender &amp;&amp; redeployProtectionFlag == RedeployProtectionFlag.True is false</text>
</g>
<!-- 2 -->
<g id="node2" class="node">
<title>2</title>
<polygon fill="none" stroke="green" points="321.57,-36 267.57,-36 267.57,0 321.57,0 321.57,-36"/>
<text text-anchor="middle" x="246.58" y="-40.2" font-family="Times,serif" font-size="14.00">success</text>
</g>
<!-- 3 -->
<g id="node3" class="node">
<title>3</title>
<polygon fill="none" stroke="red" points="2005.57,-36 1951.57,-36 1951.57,0 2005.57,0 2005.57,-36"/>
<text text-anchor="middle" x="1935.25" y="-40.2" font-family="Times,serif" font-size="14.00">revert</text>
</g>
<!-- 4&#45;&gt;2 -->
<g id="edge3" class="edge">
<title>4&#45;&gt;2</title>
<path fill="none" stroke="black" d="M204.57,-466.54C204.57,-445.56 204.57,-409.08 204.57,-377.8 204.57,-377.8 204.57,-377.8 204.57,-105.8 204.57,-74.89 232.41,-51.51 257.12,-36.85"/>
<polygon fill="black" stroke="black" points="258.73,-39.96 265.76,-32.03 255.32,-33.85 258.73,-39.96"/>
<text text-anchor="middle" x="224.01" y="-264.6" font-family="Times,serif" font-size="14.00">always</text>
</g>
<!-- 7 -->
<g id="node6" class="node">
<title>7</title>
<g id="a_node6"><a xlink:href="vscode://file//home/limx/createx/src/CreateX.sol:894:13" xlink:title="guardedSalt = _efficientHash({a: bytes32(uint256(uint160(msg.sender))), b: salt})\l">
<polygon fill="none" stroke="black" points="698.49,-394.8 220.66,-394.8 220.66,-358.8 698.49,-358.8 698.49,-394.8"/>
<text text-anchor="start" x="228.66" y="-372.6" font-family="Times,serif" font-size="14.00">guardedSalt = _efficientHash({a: bytes32(uint256(uint160(msg.sender))), b: salt})</text>
</a>
</g>
</g>
<!-- 6&#45;&gt;7 -->
<g id="edge4" class="edge">
<title>6&#45;&gt;7</title>
<path fill="none" stroke="black" d="M816.28,-537.37C732.8,-535.76 485.12,-528.82 461.08,-502.8 437.27,-477.02 442.94,-433.93 450.34,-405.68"/>
<polygon fill="black" stroke="black" points="453.62,-406.97 453.01,-396.4 446.89,-405.04 453.62,-406.97"/>
<text text-anchor="middle" x="771.31" y="-480.6" font-family="Times,serif" font-size="14.00">senderBytes == SenderBytes.MsgSender &amp;&amp; redeployProtectionFlag == RedeployProtectionFlag.False is true</text>
</g>
<!-- 9 -->
<g id="node7" class="node">
<title>9</title>
<polygon fill="none" stroke="black" points="1138.57,-448.8 1084.57,-448.8 1084.57,-412.8 1138.57,-412.8 1138.57,-448.8"/>
</g>
<!-- 6&#45;&gt;9 -->
<g id="edge5" class="edge">
<title>6&#45;&gt;9</title>
<path fill="none" stroke="black" d="M870.9,-537.23C926.88,-535.53 1052.08,-528.85 1084.57,-502.8 1097.48,-492.45 1104.22,-475.19 1107.74,-460.28"/>
<polygon fill="black" stroke="black" points="1111.17,-460.98 1109.64,-450.49 1104.3,-459.64 1111.17,-460.98"/>
<text text-anchor="middle" x="1416.65" y="-480.6" font-family="Times,serif" font-size="14.00">senderBytes == SenderBytes.MsgSender &amp;&amp; redeployProtectionFlag == RedeployProtectionFlag.False is false</text>
</g>
<!-- 7&#45;&gt;2 -->
<g id="edge6" class="edge">
<title>7&#45;&gt;2</title>
<path fill="none" stroke="black" d="M351.13,-358.37C303.66,-343.94 258.57,-317.63 258.57,-269.8 258.57,-269.8 258.57,-269.8 258.57,-105.8 258.57,-84.59 267.86,-62.53 277,-45.96"/>
<polygon fill="black" stroke="black" points="279.79,-48.12 281.82,-37.72 273.75,-44.58 279.79,-48.12"/>
<text text-anchor="middle" x="278.01" y="-210.6" font-family="Times,serif" font-size="14.00">always</text>
</g>
<!-- 10 -->
<g id="node8" class="node">
<title>10</title>
<g id="a_node8"><a xlink:href="vscode://file//home/limx/createx/src/CreateX.sol:897:13" xlink:title="revert InvalidSalt({emitter: _SELF})\l">
<polygon fill="none" stroke="black" points="2075.1,-286.8 1852.04,-286.8 1852.04,-250.8 2075.1,-250.8 2075.1,-286.8"/>
<text text-anchor="start" x="1860.04" y="-264.6" font-family="Times,serif" font-size="14.00">revert InvalidSalt({emitter: _SELF})</text>
</a>
</g>
</g>
<!-- 9&#45;&gt;10 -->
<g id="edge7" class="edge">
<title>9&#45;&gt;10</title>
<path fill="none" stroke="black" d="M1138.72,-427.15C1188.33,-422.14 1296.88,-410.36 1387.57,-394.8 1565.03,-364.35 1770.66,-316.71 1881.9,-289.89"/>
<polygon fill="black" stroke="black" points="1882.65,-293.31 1891.55,-287.56 1881.01,-286.5 1882.65,-293.31"/>
<text text-anchor="middle" x="1702.25" y="-372.6" font-family="Times,serif" font-size="14.00">senderBytes == SenderBytes.MsgSender is true</text>
</g>
<!-- 12 -->
<g id="node9" class="node">
<title>12</title>
<polygon fill="none" stroke="black" points="1138.57,-340.8 1084.57,-340.8 1084.57,-304.8 1138.57,-304.8 1138.57,-340.8"/>
</g>
<!-- 9&#45;&gt;12 -->
<g id="edge8" class="edge">
<title>9&#45;&gt;12</title>
<path fill="none" stroke="black" d="M1111.57,-412.77C1111.57,-396.56 1111.57,-371.86 1111.57,-352.59"/>
<polygon fill="black" stroke="black" points="1115.07,-352.65 1111.57,-342.65 1108.07,-352.65 1115.07,-352.65"/>
<text text-anchor="middle" x="1247.58" y="-372.6" font-family="Times,serif" font-size="14.00">senderBytes == SenderBytes.MsgSender is false</text>
</g>
<!-- 10&#45;&gt;3 -->
<g id="edge9" class="edge">
<title>10&#45;&gt;3</title>
<path fill="none" stroke="black" d="M1986.47,-250.59C2005.84,-234.47 2032.19,-208.48 2043.57,-178.8 2061.82,-131.2 2027.07,-76.26 2001.73,-44.78"/>
<polygon fill="black" stroke="black" points="2004.62,-42.78 1995.53,-37.33 1999.24,-47.26 2004.62,-42.78"/>
<text text-anchor="middle" x="2068.01" y="-156.6" font-family="Times,serif" font-size="14.00">always</text>
</g>
<!-- 13 -->
<g id="node10" class="node">
<title>13</title>
<g id="a_node10"><a xlink:href="vscode://file//home/limx/createx/src/CreateX.sol:901:13" xlink:title="guardedSalt = _efficientHash({a: bytes32(block.chainid), b: salt})\l">
<polygon fill="none" stroke="black" points="659.6,-178.8 273.54,-178.8 273.54,-142.8 659.6,-142.8 659.6,-178.8"/>
<text text-anchor="start" x="281.54" y="-156.6" font-family="Times,serif" font-size="14.00">guardedSalt = _efficientHash({a: bytes32(block.chainid), b: salt})</text>
</a>
</g>
</g>
<!-- 12&#45;&gt;13 -->
<g id="edge10" class="edge">
<title>12&#45;&gt;13</title>
<path fill="none" stroke="black" d="M1084.07,-321.23C965.89,-318.68 506.04,-307.44 483.67,-286.8 457.61,-262.75 457.67,-219.14 461.24,-190.32"/>
<polygon fill="black" stroke="black" points="464.69,-190.87 462.69,-180.47 457.77,-189.85 464.69,-190.87"/>
<text text-anchor="middle" x="797.02" y="-264.6" font-family="Times,serif" font-size="14.00">senderBytes == SenderBytes.ZeroAddress &amp;&amp; redeployProtectionFlag == RedeployProtectionFlag.True is true</text>
</g>
<!-- 15 -->
<g id="node11" class="node">
<title>15</title>
<polygon fill="none" stroke="black" points="1141.57,-232.8 1087.57,-232.8 1087.57,-196.8 1141.57,-196.8 1141.57,-232.8"/>
</g>
<!-- 12&#45;&gt;15 -->
<g id="edge11" class="edge">
<title>12&#45;&gt;15</title>
<path fill="none" stroke="black" d="M1112.05,-304.77C1112.51,-288.56 1113.21,-263.86 1113.76,-244.59"/>
<polygon fill="black" stroke="black" points="1117.25,-244.75 1114.04,-234.65 1110.26,-244.55 1117.25,-244.75"/>
<text text-anchor="middle" x="1427.35" y="-264.6" font-family="Times,serif" font-size="14.00">senderBytes == SenderBytes.ZeroAddress &amp;&amp; redeployProtectionFlag == RedeployProtectionFlag.True is false</text>
</g>
<!-- 13&#45;&gt;2 -->
<g id="edge12" class="edge">
<title>13&#45;&gt;2</title>
<path fill="none" stroke="black" d="M397.05,-142.38C385.92,-137.76 375.02,-131.98 365.69,-124.8 338.78,-104.07 318.57,-70.16 306.7,-46.33"/>
<polygon fill="black" stroke="black" points="309.97,-45.05 302.5,-37.54 303.66,-48.07 309.97,-45.05"/>
<text text-anchor="middle" x="386.01" y="-102.6" font-family="Times,serif" font-size="14.00">always</text>
</g>
<!-- 16 -->
<g id="node12" class="node">
<title>16</title>
<g id="a_node12"><a xlink:href="vscode://file//home/limx/createx/src/CreateX.sol:906:13" xlink:title="revert InvalidSalt({emitter: _SELF})\l">
<polygon fill="none" stroke="black" points="1660.1,-124.8 1437.04,-124.8 1437.04,-88.8 1660.1,-88.8 1660.1,-124.8"/>
<text text-anchor="start" x="1445.04" y="-102.6" font-family="Times,serif" font-size="14.00">revert InvalidSalt({emitter: _SELF})</text>
</a>
</g>
</g>
<!-- 15&#45;&gt;16 -->
<g id="edge13" class="edge">
<title>15&#45;&gt;16</title>
<path fill="none" stroke="black" d="M1141.81,-212.65C1197.03,-209.87 1319.85,-201.29 1354.57,-178.8 1370.48,-168.49 1361.84,-153.55 1377.46,-142.8 1392.04,-132.76 1408.87,-125.48 1426.16,-120.22"/>
<polygon fill="black" stroke="black" points="1426.82,-123.67 1435.51,-117.61 1424.94,-116.92 1426.82,-123.67"/>
<text text-anchor="middle" x="1709.63" y="-156.6" font-family="Times,serif" font-size="14.00">senderBytes == SenderBytes.ZeroAddress &amp;&amp; redeployProtectionFlag == RedeployProtectionFlag.Unspecified is true</text>
</g>
<!-- 18 -->
<g id="node13" class="node">
<title>18</title>
<g id="a_node13"><a xlink:href="vscode://file//home/limx/createx/src/CreateX.sol:910:13" xlink:title="guardedSalt = (salt != _generateSalt()) ? keccak256(abi.encode(salt)) : salt\l">
<polygon fill="none" stroke="black" points="847.24,-124.8 413.9,-124.8 413.9,-88.8 847.24,-88.8 847.24,-124.8"/>
<text text-anchor="start" x="421.9" y="-102.6" font-family="Times,serif" font-size="14.00">guardedSalt = (salt != _generateSalt()) ? keccak256(abi.encode(salt)) : salt</text>
</a>
</g>
</g>
<!-- 15&#45;&gt;18 -->
<g id="edge14" class="edge">
<title>15&#45;&gt;18</title>
<path fill="none" stroke="black" d="M1087.31,-213.11C997.36,-210.64 713.83,-201.12 679.79,-178.8 664.63,-168.85 670.81,-157.77 660.57,-142.8 658.49,-139.76 656.19,-136.68 653.82,-133.68"/>
<polygon fill="black" stroke="black" points="656.66,-131.63 647.58,-126.17 651.28,-136.1 656.66,-131.63"/>
<text text-anchor="middle" x="1015.96" y="-156.6" font-family="Times,serif" font-size="14.00">senderBytes == SenderBytes.ZeroAddress &amp;&amp; redeployProtectionFlag == RedeployProtectionFlag.Unspecified is false</text>
</g>
<!-- 16&#45;&gt;3 -->
<g id="edge15" class="edge">
<title>16&#45;&gt;3</title>
<path fill="none" stroke="black" d="M1635.07,-88.34C1728.27,-69.53 1872.35,-40.44 1940.44,-26.7"/>
<polygon fill="black" stroke="black" points="1940.88,-30.18 1949.99,-24.77 1939.49,-23.32 1940.88,-30.18"/>
<text text-anchor="middle" x="1821.01" y="-58.2" font-family="Times,serif" font-size="14.00">always</text>
</g>
<!-- 18&#45;&gt;2 -->
<g id="edge16" class="edge">
<title>18&#45;&gt;2</title>
<path fill="none" stroke="black" d="M562.98,-88.34C493.78,-70.46 388.67,-43.31 332.73,-28.86"/>
<polygon fill="black" stroke="black" points="333.92,-25.55 323.36,-26.44 332.17,-32.33 333.92,-25.55"/>
<text text-anchor="middle" x="513.01" y="-58.2" font-family="Times,serif" font-size="14.00">always</text>
</g>
</g>
</svg>
